<svg xmlns="http://www.w3.org/2000/svg" width="520" height="586" viewBox="0 0 520 586" fill="none"><rect y="66" width="520" height="520" rx="6" fill="#F9F7F1"></rect><path d="M100.017 192.713C108.048 192.713 114.558 186.203 114.558 178.172C114.558 170.141 108.048 163.631 100.017 163.631C91.9866 163.631 85.4766 170.141 85.4766 178.172C85.4766 186.203 91.9866 192.713 100.017 192.713Z" fill="#0A3D48"></path><path d="M151.054 199.534C159.085 199.534 165.595 193.024 165.595 184.994C165.595 176.963 159.085 170.453 151.054 170.453C143.024 170.453 136.514 176.963 136.514 184.994C136.514 193.024 143.024 199.534 151.054 199.534Z" fill="#0A3D48"></path><path d="M202.101 206.353C210.131 206.353 216.641 199.843 216.641 191.812C216.641 183.782 210.131 177.271 202.101 177.271C194.07 177.271 187.56 183.782 187.56 191.812C187.56 199.843 194.07 206.353 202.101 206.353Z" fill="#0A3D48"></path><path d="M300.013 335.764C308.044 335.764 314.554 329.254 314.554 321.224C314.554 313.193 308.044 306.683 300.013 306.683C291.983 306.683 285.473 313.193 285.473 321.224C285.473 329.254 291.983 335.764 300.013 335.764Z" fill="#0A3D48"></path><path d="M351.132 329.542C359.163 329.542 365.673 323.032 365.673 315.002C365.673 306.971 359.163 300.461 351.132 300.461C343.102 300.461 336.592 306.971 336.592 315.002C336.592 323.032 343.102 329.542 351.132 329.542Z" fill="#0A3D48"></path><path d="M402.254 323.314C410.284 323.314 416.794 316.804 416.794 308.773C416.794 300.742 410.284 294.232 402.254 294.232C394.223 294.232 387.713 300.742 387.713 308.773C387.713 316.804 394.223 323.314 402.254 323.314Z" fill="#0A3D48"></path><path d="M155.408 397.737C151.28 421.101 159.411 462.338 190.655 478.275" stroke="#E3AA29" stroke-width="7.5"></path><path d="M181.963 407.172C181.963 407.172 183.314 445.122 221.9 454.899" stroke="#E3AA29" stroke-width="7.5"></path><path d="M209.495 72.2215C249.194 38.1892 287.507 54.0528 284.362 75.6282C280.387 102.881 250.199 88.5677 266.579 66.6233C278.434 50.7256 327.461 29.1219 362.061 46.7058C408.165 70.1378 406.649 114.986 382.087 165.37" stroke="#E3AA29" stroke-width="7.5"></path><path d="M207.516 294.193L219.621 397.284C220.409 403.942 223.808 410.014 229.072 414.167C234.336 418.319 241.033 420.211 247.692 419.427L336.832 408.98C349.085 453.3 394.745 459.722 394.745 459.722C394.745 459.722 382.05 428.171 393.729 402.303L473.898 392.901C480.556 392.119 486.632 388.727 490.79 383.469C494.948 378.211 496.849 371.517 496.075 364.858L479.809 226.43C479.019 219.771 475.619 213.699 470.354 209.546C465.089 205.394 458.391 203.502 451.732 204.286L290.871 223.119" stroke="#0A3D48" stroke-width="7.5" stroke-miterlimit="10"></path><path d="M36.7493 109.876C37.0937 106.945 38.0121 104.111 39.452 101.535C40.8919 98.9584 42.8251 96.6912 45.1412 94.8622C47.4573 93.0333 50.111 91.6784 52.9507 90.875C55.7904 90.0717 58.7606 89.8355 61.6916 90.18L262.632 113.748C265.563 114.091 268.398 115.009 270.975 116.448C273.552 117.887 275.82 119.819 277.649 122.135C279.479 124.451 280.834 127.104 281.638 129.944C282.442 132.783 282.678 135.754 282.334 138.685L267.89 261.659C267.19 267.574 264.17 272.97 259.495 276.661C254.819 280.352 248.87 282.036 242.953 281.343L163.788 272.072C152.904 311.452 112.326 317.153 112.326 317.153C112.326 317.153 123.607 289.128 113.234 266.144L42.0069 257.792C39.0761 257.449 36.2418 256.531 33.6657 255.091C31.0897 253.652 28.8224 251.72 26.9934 249.404C25.1644 247.088 23.8095 244.435 23.006 241.596C22.2026 238.756 21.9664 235.786 22.3108 232.856L36.7493 109.876Z" stroke="#0A3D48" stroke-width="7.5" stroke-miterlimit="10"></path><path d="M425.767 156.324C396.345 160.73 379.999 170.093 379.999 170.093C375.354 154.555 368.023 139.95 358.338 126.942" stroke="#E3AA29" stroke-width="7.5"></path></svg>